<?xml version="1.0" encoding="iso-8859-1"?>
<!-- Uploaded to: SVG Repo, www.svgrepo.com, Generator: SVG Repo Mixer Tools -->
<svg fill="#000000" height="800px" width="800px" version="1.1" id="Layer_1" xmlns="http://www.w3.org/2000/svg" xmlns:xlink="http://www.w3.org/1999/xlink" 
	 viewBox="0 0 511.999 511.999" xml:space="preserve">
<g>
	<g>
		<path d="M155.901,145.792c-2.782-3.914-8.213-4.834-12.131-2.051c-35.511,25.244-61.334,61.735-73.258,103.309H36.399
			c-2.525,0-4.926,1.097-6.579,3.006c-1.652,1.909-2.393,4.443-2.03,6.942c0.073,0.503,1.857,12.474,7.572,24.559
			c7.995,16.899,18.547,23.713,27.873,26.035c0.627,15.869,3.2,31.533,7.672,46.668c1.118,3.785,4.582,6.235,8.338,6.235
			c0.815,0,1.646-0.116,2.468-0.36c4.609-1.359,7.24-6.197,5.878-10.805c-4.717-15.966-7.11-32.588-7.11-49.404
			c0-4.804-3.894-8.699-8.699-8.699c-13.709,0-20.973-15.902-24.337-26.78H77.19c3.997,0,7.479-2.723,8.442-6.603
			c9.998-40.273,34.225-75.76,68.218-99.923C157.766,155.138,158.683,149.708,155.901,145.792z"/>
	</g>
</g>
<g>
	<g>
		<path d="M449.524,245.658h-11.236c-2.676-9.055-6.044-17.953-10.055-26.552v-83.504c0-4.804-3.894-8.699-8.699-8.699h-9.766
			c-16.171,0-31.456,6.694-42.386,18.258c-5.999-4.372-12.247-8.392-18.682-12.029c3.711-10.532,5.666-21.77,5.666-33.344
			c0-15.965-3.659-31.222-10.877-45.349c-2.185-4.279-7.424-5.973-11.704-3.789c-4.277,2.185-5.974,7.425-3.789,11.704
			c5.953,11.653,8.971,24.247,8.971,37.434c0,24.857-10.89,47.839-29.984,63.561c-15.849-4.312-32.255-6.65-48.826-6.947
			c3.023-1.363,5.129-4.396,5.129-7.926v-8.686h16.387c4.805,0,8.699-3.895,8.699-8.699V100.67c0-4.804-3.893-8.699-8.699-8.699
			h-41.472V78.944h41.472c4.805,0,8.699-3.895,8.699-8.699c0-4.804-3.893-8.699-8.699-8.699h-16.387v-8.686
			c0-4.804-3.893-8.699-8.699-8.699c-4.805,0-8.699,3.895-8.699,8.699v8.686h-16.386c-4.805,0-8.699,3.895-8.699,8.699v30.423
			c0,4.804,3.893,8.699,8.699,8.699h41.472v13.025h-41.472c-4.805,0-8.699,3.895-8.699,8.699c0,4.804,3.893,8.699,8.699,8.699
			h16.386v8.686c0,3.53,2.107,6.563,5.129,7.926c-16.572,0.296-32.977,2.635-48.825,6.947
			c-19.093-15.723-29.984-38.703-29.984-63.561c0-45.431,36.954-82.393,82.378-82.393c22.301,0,43.185,8.769,58.806,24.694
			c3.365,3.431,8.87,3.482,12.3,0.118c3.43-3.365,3.483-8.871,0.118-12.301C306.896,10.622,281.601,0,254.59,0
			c-55.017,0-99.775,44.766-99.775,99.79c0,26.496,10.208,51.234,28.414,69.763c-9.842,3.774-19.395,8.323-28.543,13.645
			c-4.152,2.416-5.56,7.741-3.144,11.893c2.415,4.152,7.74,5.558,11.893,3.144c27.543-16.024,59.065-24.494,91.155-24.494
			c32.091,0,63.613,8.47,91.156,24.494c1.377,0.8,2.881,1.182,4.367,1.182c2.996,0,5.912-1.549,7.526-4.326
			c2.416-4.152,1.008-9.477-3.144-11.893c-9.148-5.322-18.701-9.871-28.543-13.645c6.094-6.202,11.29-13.099,15.509-20.525
			c7.649,4.41,14.994,9.424,21.919,14.963c1.889,1.512,4.327,2.169,6.714,1.812c2.393-0.356,4.529-1.692,5.897-3.688
			c7.642-11.154,20.269-17.814,33.777-17.814h1.067v76.757c0,1.301,0.292,2.585,0.854,3.759c4.88,10.186,8.767,20.851,11.551,31.701
			c0.987,3.847,4.455,6.537,8.426,6.537h17.858c9.582,0,17.376,7.795,17.376,17.376v48.14c0,9.581-7.795,17.376-17.376,17.376
			h-20.467c-3.801,0-7.163,2.468-8.3,6.096c-5.872,18.73-14.841,36.244-26.654,52.059c-1.124,1.503-1.73,3.33-1.73,5.206v60.624
			c0,13.604-11.067,24.669-24.671,24.669h-12.444c-13.604,0-24.671-11.067-24.671-24.669c0-2.882-1.427-5.578-3.811-7.197
			c-2.386-1.619-5.416-1.952-8.094-0.89c-20.375,8.082-41.936,12.179-64.085,12.179c-22.157,0-43.723-4.098-64.098-12.179
			c-2.681-1.062-5.71-0.729-8.094,0.89s-3.811,4.315-3.811,7.197c0,13.604-11.066,24.669-24.669,24.669H141.49
			c-13.604,0-24.669-11.067-24.669-24.669v-60.624c0-1.879-0.608-3.708-1.734-5.212c-7.385-9.868-13.727-20.537-18.851-31.71
			c-2.002-4.368-7.167-6.284-11.532-4.281c-4.368,2.003-6.284,7.165-4.281,11.532c5.232,11.409,11.617,22.338,19.001,32.527v57.767
			c0,23.196,18.871,42.067,42.067,42.067h12.434c19.099,0,35.264-12.793,40.379-30.26c19.367,6.43,39.6,9.685,60.292,9.685
			c20.687,0,40.914-3.254,60.281-9.685c5.115,17.467,21.283,30.26,40.38,30.26h12.444c23.196,0,42.068-18.871,42.068-42.067v-57.771
			c10.88-15.028,19.457-31.411,25.564-48.817h14.192c19.174,0,34.774-15.6,34.774-34.774v-48.14
			C484.298,261.258,468.698,245.658,449.524,245.658z"/>
	</g>
</g>
<g>
	<g>
		<circle cx="360.193" cy="298.492" r="8.699"/>
	</g>
</g>
</svg>